<?xml version="1.0" encoding="utf-8"?>
<!-- Generator: Adobe Illustrator 16.0.4, SVG Export Plug-In . SVG Version: 6.00 Build 0)  -->
<!DOCTYPE svg PUBLIC "-//W3C//DTD SVG 1.1//EN" "http://www.w3.org/Graphics/SVG/1.1/DTD/svg11.dtd">
<svg version="1.1" xmlns="http://www.w3.org/2000/svg" xmlns:xlink="http://www.w3.org/1999/xlink" x="0px" y="0px" width="20px"
	 height="20px" viewBox="0 0 20 20" style="enable-background:new 0 0 20 20;" xml:space="preserve">
<style type="text/css">
<![CDATA[
	.st0{filter:url(#Adobe_OpacityMaskFilter);}
	.st1{mask:url(#mask-2_1_);}
	.st2{fill:#FFFFFF;}
]]>
</style>
<g id="icons">
	<g>
		<path d="M16.9,10.5c-1-3.2-2.1-7.2-5.1-8.4C11.8,0.9,11,0,10,0C9,0,8.3,0.9,8.2,2C5,3,3.9,7.1,3,10.5c-0.6,2.2-1.2,4.6-2.2,5.1
			v1.8h6C7.1,18.8,8.4,20,10,20s2.9-1.2,3.3-2.7h5.4l0.5,0v-1.7C18.2,15,17.6,12.7,16.9,10.5z M10,18.2c-0.6,0-1.1-0.4-1.4-0.9h2.9
			C11.1,17.8,10.6,18.2,10,18.2z M3.3,15.4c0.6-1.2,1-2.7,1.5-4.4c1.1-4.3,2.2-7.3,5-7.3c2.9,0,4,3.1,5.3,7.4
			c0.5,1.7,0.9,3.2,1.6,4.4H3.3z"/>
	</g>
</g>
<g id="description">
</g>
</svg>
