<?xml version="1.0" encoding="utf-8"?>
<!-- Generator: Adobe Illustrator 16.0.4, SVG Export Plug-In . SVG Version: 6.00 Build 0)  -->
<!DOCTYPE svg PUBLIC "-//W3C//DTD SVG 1.1//EN" "http://www.w3.org/Graphics/SVG/1.1/DTD/svg11.dtd">
<svg version="1.1" xmlns="http://www.w3.org/2000/svg" xmlns:xlink="http://www.w3.org/1999/xlink" x="0px" y="0px" width="108px"
	 height="144px" viewBox="0 0 108 144" enable-background="new 0 0 108 144" xml:space="preserve">
<g id="Ebene_3" display="none">
	<rect x="-562.5" y="-171" display="inline" fill="#A09597" width="3888.001" height="1350"/>
</g>
<g id="Icons">
	<path fill="#FFFFFF" d="M85.5,31.5C85.5,14.103,71.397,0,54,0S22.5,14.103,22.5,31.5S36.603,63,54,63S85.5,48.897,85.5,31.5z
		 M54,54c-12.407,0-22.5-10.093-22.5-22.5S41.593,9,54,9c12.406,0,22.5,10.093,22.5,22.5S66.406,54,54,54z M108,117v27h-9v-27
		c0-24.813-20.187-45-45-45S9,92.187,9,117v27H0v-27c0-29.823,24.176-54,54-54C83.823,63,108,87.177,108,117z"/>
</g>
<g id="Description" display="none">
</g>
</svg>
