<?xml version="1.0" encoding="utf-8"?>
<!-- Generator: Adobe Illustrator 16.0.4, SVG Export Plug-In . SVG Version: 6.00 Build 0)  -->
<!DOCTYPE svg PUBLIC "-//W3C//DTD SVG 1.1//EN" "http://www.w3.org/Graphics/SVG/1.1/DTD/svg11.dtd">
<svg version="1.1" xmlns="http://www.w3.org/2000/svg" xmlns:xlink="http://www.w3.org/1999/xlink" x="0px" y="0px" width="108px"
	 height="144px" viewBox="0 0 108 144" enable-background="new 0 0 108 144" xml:space="preserve">
<g id="Ebene_3" display="none">
	<rect x="-2578.5" y="-459" display="inline" fill="#A09597" width="3888.001" height="1350"/>
</g>
<g id="Icons">
	<g>
		<rect x="0.002" y="49.01" fill="#FFFFFF" width="8.999" height="9"/>
		
			<rect x="24.741" y="6.138" transform="matrix(0.5004 0.8658 -0.8658 0.5004 23.8195 -20.0017)" fill="#FFFFFF" width="9" height="9.002"/>
		<polygon fill="#FFFFFF" points="4.996,76.611 9.491,84.41 17.285,79.905 12.786,72.116 		"/>
		<polygon fill="#FFFFFF" points="58.495,-0.25 49.491,-0.12 49.487,9 58.491,9 		"/>
		<polygon fill="#FFFFFF" points="17.276,27.113 9.473,22.611 4.982,30.41 12.781,34.908 		"/>
		
			<rect x="92.373" y="73.743" transform="matrix(-0.8663 -0.4996 0.4996 -0.8663 141.7025 194.4192)" fill="#FFFFFF" width="9.004" height="8.998"/>
		<polygon fill="#FFFFFF" points="84.896,8.98 77.092,4.48 72.601,12.279 80.396,16.774 		"/>
		<polygon fill="#FFFFFF" points="103.009,30.389 98.509,22.594 90.715,27.098 95.223,34.89 		"/>
		<polygon fill="#FFFFFF" points="99.005,49 99.001,57.997 108,57.989 108,49 		"/>
		<rect x="41" y="135" fill="#FFFFFF" width="26" height="9"/>
		<rect x="41" y="120" fill="#FFFFFF" width="26" height="9"/>
		<path fill="#FFFFFF" d="M54.049,20.496c-20.58,0-33.894,13.812-33.917,35.188c-0.014,14.023,19.458,51.014,21.678,55.186
			l1.27,2.385l22.675,0.02l1.231-2.54c2.136-4.404,20.865-43.358,20.883-54.982C87.885,34.353,74.627,20.513,54.049,20.496z
			 M60.108,104.266l-11.606-0.01c-6.393-12.305-19.379-39.234-19.37-48.564c0.018-16.403,9.333-26.196,24.954-26.196
			c15.53,0.013,24.795,9.826,24.782,26.245C78.857,62.578,67.831,88.076,60.108,104.266z"/>
	</g>
</g>
<g id="Description" display="none">
</g>
</svg>
