<?xml version="1.0" encoding="utf-8"?>
<!-- Generator: Adobe Illustrator 15.1.0, SVG Export Plug-In . SVG Version: 6.00 Build 0)  -->
<!DOCTYPE svg PUBLIC "-//W3C//DTD SVG 1.1//EN" "http://www.w3.org/Graphics/SVG/1.1/DTD/svg11.dtd">
<svg version="1.1" xmlns="http://www.w3.org/2000/svg" xmlns:xlink="http://www.w3.org/1999/xlink" x="0px" y="0px" width="108px"
	 height="144px" viewBox="0 0 108 144" enable-background="new 0 0 108 144" xml:space="preserve">
<g id="Icons">
	<g>
		<g>
			<path d="M108,144H0V0h108V144z M9,135h90V9H9V135z"/>
		</g>
		<g>
			<path d="M63.845,53.716c0-3.312-1.056-5.877-3.166-7.697c-2.112-1.816-4.79-2.727-8.037-2.727c-3.508,0-6.367,0.975-8.573,2.923
				c-2.209,1.948-3.476,4.772-3.8,8.475H31.5c0.194-2.923,0.893-5.553,2.095-7.891c1.2-2.338,2.76-4.319,4.677-5.942
				c1.914-1.624,4.107-2.875,6.576-3.752c2.467-0.876,5.097-1.314,7.891-1.314c2.857,0,5.504,0.424,7.94,1.267
				c2.436,0.844,4.53,2.045,6.284,3.604c1.754,1.559,3.132,3.426,4.14,5.601c1.006,2.178,1.511,4.597,1.511,7.258
				c0,2.145-0.212,4.044-0.633,5.7c-0.424,1.656-1.009,3.151-1.754,4.482c-0.748,1.332-1.624,2.55-2.63,3.653
				c-1.007,1.104-2.063,2.143-3.166,3.117c-1.429,1.301-2.696,2.436-3.799,3.409c-1.106,0.975-2.046,1.918-2.826,2.826
				c-0.779,0.911-1.38,1.885-1.802,2.923c-0.422,1.039-0.633,2.241-0.633,3.604v2.924H46.6v-2.924c0-1.882,0.196-3.539,0.585-4.968
				s0.975-2.761,1.754-3.995c0.779-1.232,1.769-2.419,2.971-3.556c1.202-1.136,2.583-2.354,4.142-3.654
				c2.727-2.207,4.707-4.301,5.941-6.284C63.227,58.799,63.845,56.444,63.845,53.716z M56.344,103.5H45.627V92.783h10.717V103.5z"/>
		</g>
	</g>
</g>
<g id="Description">
</g>
</svg>
