<?xml version="1.0" encoding="utf-8"?>
<!-- Generator: Adobe Illustrator 15.1.0, SVG Export Plug-In . SVG Version: 6.00 Build 0)  -->
<!DOCTYPE svg PUBLIC "-//W3C//DTD SVG 1.1//EN" "http://www.w3.org/Graphics/SVG/1.1/DTD/svg11.dtd">
<svg version="1.1" xmlns="http://www.w3.org/2000/svg" xmlns:xlink="http://www.w3.org/1999/xlink" x="0px" y="0px" width="20px"
	 height="20px" viewBox="0 0 20 20" style="enable-background:new 0 0 20 20;" xml:space="preserve">
<style type="text/css">
<![CDATA[
	.st0{fill:#FFFFFF;}
]]>
</style>
<g id="icons">
	<g>
		<path class="st0" d="M10,0C4.5,0,0,4.5,0,10s4.5,10,10,10c5.5,0,10-4.5,10-10C20,4.5,15.5,0,10,0z M10,18c-4.4,0-8-3.6-8-8
			s3.6-8,8-8s8,3.6,8,8S14.4,18,10,18z"/>
		<path class="st0" d="M12.5,5.1c-0.3-0.3-0.7-0.5-1.1-0.6c-0.8-0.3-1.8-0.3-2.7,0C8.4,4.6,8,4.9,7.7,5.1c-0.3,0.3-0.6,0.6-0.8,1
			C6.7,6.5,6.5,7,6.5,7.5l0,0.4h2l0-0.3c0-0.5,0.2-0.8,0.5-1.1c0.3-0.2,0.6-0.4,1.1-0.4c0.4,0,0.7,0.1,1,0.3
			c0.2,0.2,0.4,0.5,0.4,0.9c0,0.4-0.1,0.7-0.2,0.9c-0.2,0.3-0.4,0.6-0.8,0.9c-0.2,0.2-0.5,0.4-0.7,0.6c-0.2,0.2-0.4,0.4-0.5,0.6
			c-0.1,0.2-0.2,0.5-0.3,0.7c-0.1,0.3-0.1,0.5-0.1,0.9v0.8h2v-0.8c0-0.2,0-0.3,0.1-0.4c0.1-0.1,0.1-0.2,0.2-0.4
			c0.1-0.1,0.2-0.3,0.4-0.4c0.2-0.2,0.4-0.3,0.6-0.5c0.2-0.2,0.4-0.3,0.5-0.5c0.2-0.2,0.3-0.4,0.4-0.6c0.1-0.2,0.2-0.5,0.3-0.8
			c0.1-0.3,0.1-0.6,0.1-1c0-0.5-0.1-0.9-0.3-1.3C13.1,5.7,12.8,5.4,12.5,5.1z"/>
		<rect x="8.8" y="13.7" class="st0" width="2.1" height="2.1"/>
	</g>
</g>
<g id="description">
</g>
</svg>
