<?xml version="1.0" encoding="utf-8"?>
<!-- Generator: Adobe Illustrator 16.0.4, SVG Export Plug-In . SVG Version: 6.00 Build 0)  -->
<!DOCTYPE svg PUBLIC "-//W3C//DTD SVG 1.1//EN" "http://www.w3.org/Graphics/SVG/1.1/DTD/svg11.dtd">
<svg version="1.1" xmlns="http://www.w3.org/2000/svg" xmlns:xlink="http://www.w3.org/1999/xlink" x="0px" y="0px" width="20px"
	 height="20px" viewBox="0 0 20 20" style="enable-background:new 0 0 20 20;" xml:space="preserve">
<style type="text/css">
<![CDATA[
	.st0{filter:url(#Adobe_OpacityMaskFilter);}
	.st1{fill:#FFFFFF;}
	.st2{mask:url(#mask-2_1_);fill:#FFFFFF;}
]]>
</style>
<g id="icons">
	<g id="Symbols_25_">
		<g id="Icon---profile">
			<path id="Stroke-1_16_" class="st1" d="M14.5,5c0,2.5-2,4.5-4.5,4.5S5.5,7.5,5.5,5s2-4.5,4.5-4.5S14.5,2.5,14.5,5z M12.5,5
				c0-1.4-1.1-2.5-2.5-2.5S7.5,3.6,7.5,5S8.6,7.5,10,7.5S12.5,6.4,12.5,5z"/>
			<path id="Rectangle-21" class="st1" d="M3,20v-3.5c0-3,2.5-5.5,5.5-5.5h3c3,0,5.5,2.5,5.5,5.5V20h2v-3.5c0-4.1-3.4-7.5-7.5-7.5
				h-3C4.4,9,1,12.4,1,16.5V20H3z"/>
		</g>
	</g>
</g>
<g id="description">
</g>
</svg>
