<?xml version="1.0" encoding="utf-8"?>
<!-- Generator: Adobe Illustrator 16.0.4, SVG Export Plug-In . SVG Version: 6.00 Build 0)  -->
<!DOCTYPE svg PUBLIC "-//W3C//DTD SVG 1.1//EN" "http://www.w3.org/Graphics/SVG/1.1/DTD/svg11.dtd">
<svg version="1.1" xmlns="http://www.w3.org/2000/svg" xmlns:xlink="http://www.w3.org/1999/xlink" x="0px" y="0px" width="20px"
	 height="20px" viewBox="0 0 20 20" style="enable-background:new 0 0 20 20;" xml:space="preserve">
<style type="text/css">
<![CDATA[
	.st0{filter:url(#Adobe_OpacityMaskFilter);}
	.st1{fill:#FFFFFF;}
	.st2{mask:url(#mask-2_1_);fill:#FFFFFF;}
]]>
</style>
<g id="icons">
	<g>
		<path class="st1" d="M15.6,7V5.5c0-3-2.4-5.5-5.5-5.5S4.6,2.4,4.6,5.5V7H2v13h16V7H15.6z M6.6,5.5C6.6,3.6,8.2,2,10.1,2
			s3.5,1.6,3.5,3.5V7H6.6V5.5z M16,18H4V9h12V18z"/>
		<path class="st1" d="M9,14.7V17h2v-2.3c0.6-0.3,1-1,1-1.7c0-1.1-0.9-2-2-2s-2,0.9-2,2C8,13.7,8.4,14.4,9,14.7z"/>
	</g>
</g>
<g id="description">
</g>
</svg>
