<?xml version="1.0" encoding="utf-8"?>
<!-- Generator: Adobe Illustrator 16.0.4, SVG Export Plug-In . SVG Version: 6.00 Build 0)  -->
<!DOCTYPE svg PUBLIC "-//W3C//DTD SVG 1.1//EN" "http://www.w3.org/Graphics/SVG/1.1/DTD/svg11.dtd">
<svg version="1.1" xmlns="http://www.w3.org/2000/svg" xmlns:xlink="http://www.w3.org/1999/xlink" x="0px" y="0px" width="20px"
	 height="20px" viewBox="0 0 20 20" style="enable-background:new 0 0 20 20;" xml:space="preserve">
<style type="text/css">
<![CDATA[
	.st0{filter:url(#Adobe_OpacityMaskFilter);}
	.st1{mask:url(#mask-2_1_);}
	.st2{fill:#FFFFFF;}
]]>
</style>
<g id="icons">
	<g>
		<g>
			<path d="M6.9,4.1C7.4,2.9,8.7,2,10.1,2c1.9,0,3.5,1.6,3.5,3.5V7H2v13h16V7h-2.4V5.5c0-3-2.4-5.5-5.5-5.5C7.8,0,5.8,1.4,5,3.5
				L6.9,4.1z M16,18H4V9h12V18z"/>
		</g>
		<g>
			<path d="M9,14.7V17h2v-2.3c0.6-0.3,1-1,1-1.7c0-1.1-0.9-2-2-2c-1.1,0-2,0.9-2,2C8,13.7,8.4,14.4,9,14.7z"/>
		</g>
	</g>
</g>
<g id="description">
</g>
</svg>
