<?xml version="1.0" encoding="utf-8"?>
<!-- Generator: Adobe Illustrator 16.0.4, SVG Export Plug-In . SVG Version: 6.00 Build 0)  -->
<!DOCTYPE svg PUBLIC "-//W3C//DTD SVG 1.1//EN" "http://www.w3.org/Graphics/SVG/1.1/DTD/svg11.dtd">
<svg version="1.1" xmlns="http://www.w3.org/2000/svg" xmlns:xlink="http://www.w3.org/1999/xlink" x="0px" y="0px" width="108px"
	 height="144px" viewBox="0 0 108 144" enable-background="new 0 0 108 144" xml:space="preserve">
<g id="Ebene_3" display="none">
	<rect x="-418.5" y="-171" display="inline" fill="#A09597" width="3888.001" height="1350"/>
</g>
<g id="Icons">
	<path fill="#FFFFFF" d="M0,0v144h108V0H0z M99,135H9V27h81v-9H9V9h90V135z M45,81H18V36h27V81z M36,45h-9v27h9V45z M63,99h27v27H63
		V99z M72,117h9v-9h-9V117z M18,126h36v-9H18V126z M18,108h36v-9H18V108z M90,72H54v9h36V72z M90,54H54v9h36V54z M90,36H54v9h36V36z
		"/>
</g>
<g id="Description" display="none">
</g>
</svg>
