<?xml version="1.0" encoding="utf-8"?>
<!-- Generator: Adobe Illustrator 15.1.0, SVG Export Plug-In . SVG Version: 6.00 Build 0)  -->
<!DOCTYPE svg PUBLIC "-//W3C//DTD SVG 1.1//EN" "http://www.w3.org/Graphics/SVG/1.1/DTD/svg11.dtd">
<svg version="1.1" id="Layer_1" xmlns="http://www.w3.org/2000/svg" xmlns:xlink="http://www.w3.org/1999/xlink" x="0px" y="0px"
	 width="283.465px" height="95.318px" viewBox="0 0 283.465 95.318" enable-background="new 0 0 283.465 95.318"
	 xml:space="preserve">
<path fill="#003868" d="M125.421,51.118h-18.676v4.242l0.58-0.06l0.014-0.071c0.125-0.627,1.248-1.827,2.631-1.827
	c0,0,3.984,0,4.171,0c0,0.194,0.002,21.766,0.002,21.766h4.075c0,0-0.024-21.555-0.024-21.75c0.188,0,4.267,0,4.267,0
	c1.409,0,2.333,0.773,2.49,1.5l0.018,0.079l0.591-0.018l-0.04-3.861H125.421z"/>
<path fill="#003868" d="M4.251,49.659c0,0,0.035,0.034,0.07,0.068C4.287,49.693,4.251,49.659,4.251,49.659
	C1.549,52.468,0,56.319,0,60.228c0,4.349,1.754,8.303,4.941,11.133c3.044,2.704,7.114,4.192,11.461,4.192
	c2.277,0,6.742-0.387,11.05-2.982l0.167-0.101l0.513-6.124l-0.805-0.104l-0.119,0.25c-3.163,6.614-8.143,6.614-10.018,6.614
	c-8.398,0-12.224-6.966-12.224-13.438c0-6.26,3.789-12.578,12.254-12.578c2.596,0,7.316,0.849,9.772,6.527l0.136,0.314l0.79-0.242
	l-0.516-6.383l-0.21-0.09c-3.945-1.721-7.127-2.487-10.316-2.487C11.722,44.729,7.356,46.434,4.251,49.659z"/>
<path fill="#003868" d="M32.147,51.115h-0.1l0.007,0.556l0.051,0.026c0.341,0.182,0.722,1.107,0.722,2.145l-0.001,21.325h4.001
	c0,0-0.015-10.761-0.016-10.958c0.176,0.005,1.75,0.045,1.75,0.045c1.572,0.088,2.192,1.129,2.978,2.447
	c0,0.001,0.098,0.163,0.098,0.163l0.503,0.849c0.855,1.443,2.027,3.422,3.245,5.23c0.875,1.301,1.968,2.048,3.34,2.285
	c0.979,0.17,2.934,0.104,3.67-0.122c-0.004,0.001,0.881-0.228,0.881-0.228l0.334-0.086l-1.215-0.375
	c-0.49-0.151-1.262-0.49-2.3-1.688c-0.643-0.742-1.683-2.401-3.257-4.914c-0.003-0.006-1.56-2.482-1.56-2.482
	c-0.001-0.002-0.03-0.044-0.03-0.044c-0.417-0.61-1.115-1.598-2.288-2.226c2.253-0.737,4.465-2.79,4.465-5.848
	c0-0.868-0.223-2.534-1.712-3.945c-1.51-1.431-3.862-2.156-6.992-2.156H32.147z M38.992,53.283c4.104,0.173,4.222,3.643,4.222,4.037
	c0,3.492-2.579,4.731-4.787,4.731c0,0-1.436-0.03-1.604-0.034c0-0.186,0-8.52,0-8.697C37.241,53.286,38.009,53.242,38.992,53.283z"
	/>
<path fill="#003868" d="M73.085,51.115h-0.111l0.075,0.596l0.047,0.023c0.349,0.174,0.678,1.035,0.678,1.773L73.75,75.167h6.857
	c4.527,0,8.274-1.409,10.835-4.073c2.127-2.213,3.347-5.249,3.347-8.33c0-1.862-0.628-4.674-2.391-6.981
	c-2.364-3.097-6.112-4.667-11.142-4.667H73.085z M77.827,53.423c0.18,0,2.146,0.005,2.146,0.005
	c0.571,0.008,2.013,0.043,3.026,0.197c6.737,1.021,7.464,6.731,7.464,9.139c0,1.973-0.352,4.781-2.027,6.953
	c-1.643,2.131-4.219,3.211-7.658,3.211c-0.82,0-1.84-0.002-2.952-0.053C77.827,72.688,77.827,53.616,77.827,53.423z"/>
<path fill="#003868" d="M103.072,51.115h-4.7l0.016,0.582l0.053,0.027c0.433,0.215,0.713,0.997,0.713,1.992l-0.001,21.45h4.012
	l0.006-24.052H103.072z"/>
<path fill="#003868" d="M183.885,51.115h-4.729l0.047,0.541l0.049,0.025c0.426,0.213,0.713,1.03,0.713,2.035v21.45h4.012
	l0.006-24.052H183.885z"/>
<path fill="#003868" d="M67.9,51.115H54.454l0.076,0.564l0.046,0.023c0.367,0.182,0.747,1.032,0.747,2.139l-0.002,21.325H68.75
	l0.976-4.262l-0.541-0.194l-0.152,0.237c-1.111,1.747-2.239,1.979-6.135,1.979c-1.388,0.029-2.742-0.092-3.59-0.171
	c0-0.174,0-9.625,0-9.815c0.19,0,6.793,0,6.793,0v-2.168c0,0-6.605-0.001-6.793-0.001c0-0.188,0-7.292,0-7.482
	c0.191,0.002,5.507,0.063,5.507,0.063c1.241,0,2.605,1.188,2.725,1.905l0.015,0.084l0.55-0.013l-0.108-4.215H67.9z"/>
<path fill="#003868" d="M239.801,51.115h-13.402l0.027,0.615l0.053,0.025c0.361,0.181,0.746,0.974,0.746,2.086l-0.002,21.325h13.428
	l0.977-4.266l-0.607-0.188l-0.15,0.235c-1.111,1.747-2.227,1.979-6.07,1.979c-1.389,0.029-2.742-0.092-3.59-0.171
	c0-0.174,0-9.625,0-9.815c0.191,0,6.793,0,6.793,0v-2.168c0,0-6.604-0.001-6.793-0.001c0-0.188,0-7.292,0-7.482
	c0.193,0.002,5.508,0.063,5.508,0.063c1.52,0,2.662,1.158,2.662,1.91v0.104l0.625-0.041l-0.107-4.211H239.801z"/>
<path fill="#003868" d="M137.108,46.618c-1.415,1.017-3.108,2.887-3.141,6.026c0,0.031,0,0.062,0,0.092
	c0,3.859,2.459,5.887,6.421,7.897c0,0-0.008-0.022-0.014-0.04c0.102,0.084,0.447,0.262,1.523,0.81
	c3.309,1.661,5.698,2.862,5.698,6.239c0,1.159-0.438,2.83-1.664,4.044c-1.021,1.011-2.393,1.515-4.079,1.497
	c-5.051-0.052-6.839-4.48-7.373-6.383l-0.092-0.33l-0.849,0.141l0.235,6.286l0.183,0.104c1.612,0.938,4.31,2.506,8.173,2.545
	c2.737,0.027,5.512-1.087,7.424-2.981c1.68-1.662,2.566-3.768,2.566-6.091c0-5.099-3.652-7.012-7.525-9.04l-0.727-0.382
	c-3.965-1.991-5.831-3.203-5.805-5.703c0.018-1.698,1.297-4.382,4.655-4.348c3.904,0.039,6.06,2.977,6.501,4.818l0.08,0.334
	l0.84-0.108l-0.287-5.442l-0.156-0.106c-2.313-1.559-5.213-1.753-6.354-1.764C141.08,44.711,138.806,45.397,137.108,46.618z"/>
<path fill="#003868" d="M190.361,57.197L190.361,57.197c-0.033,3.332,1.967,5.02,5.207,6.664c0,0,1.221,0.622,1.223,0.622
	c2.551,1.282,4.238,2.128,4.238,4.524c0,0.418-0.086,1.868-1.199,2.97c-0.771,0.764-1.842,1.144-3.178,1.13
	c-3.826-0.038-5.23-3.014-5.727-4.784l-0.094-0.33l-0.811,0.134l0.189,5.066l0.184,0.105c1.275,0.742,3.408,1.982,6.475,2.014
	c2.176,0.023,4.383-0.863,5.904-2.371c1.338-1.324,2.045-3.002,2.045-4.854c0-4.212-2.914-5.738-5.998-7.354
	c0,0-0.543-0.285-0.545-0.286c-3.313-1.664-4.469-2.411-4.451-4.268c0.012-1.303,0.99-3.231,3.625-3.205
	c3.223,0.033,4.631,2.365,4.926,3.594l0.078,0.335l0.811-0.105l-0.232-4.401l-0.158-0.105c-1.84-1.241-4.141-1.395-5.047-1.403
	C194.238,50.852,190.404,53.051,190.361,57.197z"/>
<path fill="#003868" d="M208.369,57.197c-0.033,3.331,1.967,5.02,5.209,6.665l1.221,0.621c2.553,1.282,4.238,2.129,4.238,4.524
	c0,0.418-0.088,1.868-1.199,2.97c-0.771,0.764-1.842,1.144-3.178,1.13c-3.824-0.038-5.23-3.014-5.727-4.784l-0.094-0.33
	l-0.811,0.134l0.189,5.065l0.184,0.106c1.275,0.742,3.41,1.982,6.475,2.014c2.176,0.023,4.383-0.863,5.904-2.371
	c1.338-1.324,2.045-3.002,2.045-4.854c0-4.212-2.912-5.738-5.998-7.354c0,0-0.543-0.285-0.545-0.286
	c-3.313-1.663-4.469-2.411-4.451-4.268c0.008-0.821,0.371-1.662,0.969-2.248c0.648-0.637,1.568-0.968,2.658-0.957
	c3.223,0.033,4.629,2.365,4.922,3.595l0.082,0.334l0.809-0.105l-0.232-4.401l-0.158-0.105c-1.84-1.241-4.143-1.395-5.045-1.403
	C212.248,50.852,208.412,53.051,208.369,57.197z"/>
<path fill="#003868" d="M173.906,51.095l-3.16,0.021l0.051,0.541l0.049,0.024c0.158,0.079,0.678,0.456,0.678,1.976l0.018,13.671
	c0,2.648-0.971,5.806-5.598,5.806c-4.371,0-5.268-2.614-5.268-6.54l0.004-15.479h-5l0.037,0.536l0.047,0.025
	c0.32,0.169,0.859,0.804,0.859,2.103v12.814c0,7.96,5.232,8.881,9.17,8.881c1.922,0,8.195-0.583,8.195-8.088l0.018-16.293
	L173.906,51.095z"/>
<g>
	<path fill="#003868" d="M274.314,44.245c2.828,0.908,5.828,2.181,8.975,3.94c-7.725-12.76-21.545-26.659-35.104-35.665
		c3.496,3.46,9.168,11.077,10.639,19.245C264.379,35.723,269.621,39.935,274.314,44.245z"/>
	<path fill="#003868" d="M274.305,44.24c-6.627-2.132-12.275-2.238-16.467-1.807c1.475-3.457,1.625-7.104,0.99-10.65
		c-10.262-7.311-21.572-13.771-32.447-18.383c7.98,5.403,16.777,20.989,20.469,37.708c7.865-2.329,19.979-3.935,35.594,1.319
		C279.988,49.686,277.254,46.944,274.305,44.24z"/>
	<path fill="none" d="M258.824,31.766c0.641,3.551,0.49,7.204-0.986,10.668c4.193-0.432,9.846-0.325,16.477,1.811
		C269.621,39.935,264.379,35.723,258.824,31.766z"/>
</g>
</svg>
